# xmcd
#
# Track frame offsets: 
#        150
#        15027
#        28170
#        41245
#        57267
#        71305
#        84680
#        96627
#        111050
#        124030
#        137432
#        150970
#        166115
#        179995
#        192635
#        205452
#
# Disc length: 2936 seconds
#
# Revision: 1
# Processed by: cddbd v1.5.2PL0 Copyright (c) Steve Scherf et al.
# Submitted via: ExactAudioCopy v0.95b4
#
DISCID=dc0b7610
DTITLE=Various Artist - Hula Blues: Vintage Steel Guitar Instrumentals from t
DTITLE=he 30's and 40's
DYEAR=1974
DGENRE=Hawaiian
TTITLE0=Sol Hoopii - Hula Blues
TTITLE1=Sol Hoopii - Farewell Blues
TTITLE2=Sol Hoopii - Hawaiian March
TTITLE3=Frank Ferera - Melani Anu Ka Makani
TTITLE4=Jim and Bob, the Genial Hawaiians - Song of the Range
TTITLE5=Jim and Bob, the Genial Hawaiians - Chimes
TTITLE6=Biltmore Orchestra - Kaui Kahio
TTITLE7=Lemuel Turner - Jake Bottle Blues
TTITLE8=Pat Patterson and His Champion Rep Riders - The Cat's Whiskers
TTITLE9=Sol Hoopii - Train Song
TTITLE10=Andy Sanella - Blues of the Guitar
TTITLE11=Hawaiian Serenaders - Honolulu Stomp
TTITLE12=Sol Hoopii with O.T. Coffin - Twelfth Street Rag
TTITLE13=Roy Smeck - Hilo March
TTITLE14=Roy Smeck - Kalima Waltz
TTITLE15=Roy Smeck - Twilight Echoes
EXTD=Originally released as Rounder LP 1012 (1974).\nCD: Rounder Selec
EXTD=t 1012 (2000-06-20), UPC 011661101227.
EXTT0=
EXTT1=
EXTT2=
EXTT3=
EXTT4=
EXTT5=
EXTT6=
EXTT7=
EXTT8=
EXTT9=
EXTT10=
EXTT11=
EXTT12=
EXTT13=
EXTT14=
EXTT15=
PLAYORDER=
